<?xml version="1.0" standalone="no"?>
<!DOCTYPE svg PUBLIC "-//W3C//DTD SVG 20010904//EN"
 "http://www.w3.org/TR/2001/REC-SVG-20010904/DTD/svg10.dtd">
<svg version="1.0" xmlns="http://www.w3.org/2000/svg"
 width="256.000000pt" height="245.000000pt" viewBox="0 0 256.000000 245.000000"
 preserveAspectRatio="xMidYMid meet">

<g transform="translate(0.000000,245.000000) scale(0.100000,-0.100000)"
fill="#000000" stroke="none">
<path d="M1185 2106 c-270 -54 -509 -214 -660 -441 -102 -153 -157 -314 -171
-505 -7 -90 -8 -94 -41 -123 -69 -61 -78 -92 -78 -277 0 -150 2 -169 22 -205
47 -88 115 -125 229 -125 l74 0 0 374 c0 291 3 393 15 462 27 153 86 271 195
387 155 166 325 243 557 254 93 5 130 2 210 -17 240 -54 430 -204 539 -427 72
-147 74 -164 74 -690 l0 -463 -450 0 -451 0 3 -107 3 -108 480 0 480 0 45 25
c24 14 58 44 75 68 28 41 30 51 35 153 l5 109 39 32 c67 55 76 88 76 284 0
163 -1 172 -26 222 -14 29 -34 57 -44 62 -41 22 -50 40 -50 102 0 133 -60 341
-134 463 -138 229 -343 389 -601 466 -85 26 -120 31 -240 35 -95 2 -163 -1
-210 -10z"/>
<path d="M1195 1756 c-87 -23 -153 -53 -217 -99 -173 -123 -274 -299 -285
-494 -3 -51 -3 -93 1 -93 15 0 115 56 172 95 76 55 198 185 243 259 39 65 100
215 108 263 3 18 9 33 13 33 4 0 25 -30 46 -67 22 -36 72 -102 112 -145 152
-161 358 -264 570 -284 85 -8 83 -11 47 100 -58 177 -202 330 -388 409 -68 30
-79 31 -222 34 -100 1 -167 -2 -200 -11z"/>
<path d="M970 1083 c-25 -13 -39 -29 -47 -55 -26 -81 29 -154 110 -144 46 5
72 27 87 71 31 93 -62 172 -150 128z"/>
<path d="M1650 1083 c-69 -35 -73 -143 -7 -184 66 -41 148 -4 162 74 17 87
-73 151 -155 110z"/>
</g>
</svg>
